<svg width="270" height="299" viewBox="0 0 270 299" fill="none" xmlns="http://www.w3.org/2000/svg">
<path d="M48.5361 185.5L207.336 91.1C214.636 95.2 218.536 97.8 219.936 100.2C221.136 102.4 221.536 106.3 221.536 112.9L62.7361 207.3C55.5361 203.2 51.5361 200.6 50.1361 198.2C48.8361 196 48.5361 192.1 48.5361 185.5Z" fill="#FFB400"/>
<path d="M48.5358 110.7L143.436 54.3C147.036 56.2 151.736 59.1 158.036 62.8C161.336 64.8 164.936 67 168.936 69.4L49.0358 140.7C48.9358 135.8 48.8358 130.6 48.7358 126C48.5358 119.6 48.4358 114.6 48.5358 110.7Z" fill="#FFB400"/>
<path d="M101.136 229L221.036 157.7C221.136 162.6 221.236 167.8 221.336 172.4C221.436 178.7 221.536 183.7 221.536 187.6L126.636 244C123.036 242.1 118.336 239.2 112.036 235.5C108.636 233.5 104.936 231.3 101.136 229Z" fill="#FFB400"/>
<path d="M202.136 32.8C210.236 37.5 219.136 42.3 226.536 46.4C247.336 57.8 257.636 63.5 264.036 74.6C270.436 85.6 270.136 97.5 269.636 121.2C269.536 127.9 269.336 135.9 269.336 149.2C269.336 162.5 269.536 170.4 269.636 177.2C270.136 200.9 270.436 212.7 264.036 223.8C257.636 234.8 247.236 240.5 226.536 252C219.036 256.1 210.236 261 202.136 265.6C192.536 271.1 184.736 275.9 178.136 279.9C157.836 292.2 147.636 298.4 134.936 298.4C122.336 298.4 112.136 292.2 91.736 279.9C85.136 275.9 77.336 271.1 67.736 265.6C58.636 260.3 50.3359 255.8 43.3359 252C22.5359 240.6 12.1359 234.9 5.83593 223.8C-0.564067 212.8 -0.264043 200.9 0.235957 177.2C0.335957 170.5 0.535945 162.5 0.535945 149.2C0.535945 136 0.335957 128 0.235957 121.2C-0.264043 97.5 -0.564067 85.6 5.83593 74.6C12.2359 63.6 22.6359 57.9 43.3359 46.4C50.3359 42.6 58.536 38 67.736 32.8C77.336 27.3 85.136 22.5 91.736 18.5C112.036 6.2 122.236 0 134.936 0C147.536 0 157.736 6.2 178.136 18.5C184.736 22.6 192.636 27.3 202.136 32.8ZM214.036 69.3C207.736 65.9 200.336 61.8 189.236 55.4C179.536 49.8 171.536 44.9 164.736 40.8C148.636 31 140.636 26.2 135.036 26.2C129.436 26.2 121.436 31.1 105.336 40.8C98.5359 44.9 90.5359 49.8 80.8359 55.4C70.7359 61.2 62.736 65.6 55.936 69.3C39.336 78.4 31.1359 82.9 28.3359 87.7C25.6359 92.5 25.8359 101.9 26.1359 120.8C26.3359 129.7 26.5359 140.3 26.5359 149.3C26.5359 158.3 26.3359 168.8 26.1359 177.8C25.7359 196.7 25.5359 206.1 28.3359 210.9C31.0359 215.7 39.336 220.2 55.936 229.3C62.736 233 70.7359 237.4 80.8359 243.2C90.5359 248.8 98.5359 253.6 105.336 257.7C121.436 267.5 129.436 272.3 135.036 272.3C140.636 272.3 148.636 267.4 164.736 257.7C171.536 253.6 179.536 248.7 189.236 243.1C200.336 236.7 207.736 232.6 214.036 229.2C230.636 220.1 238.836 215.6 241.636 210.8C244.336 206 244.136 196.6 243.736 177.7C243.536 168.8 243.336 158.2 243.336 149.2C243.336 140.3 243.536 129.7 243.736 120.7C244.136 101.8 244.336 92.3 241.536 87.6C238.936 82.9 230.636 78.4 214.036 69.3Z" fill="black"/>
</svg>
